<?xml version="1.0" encoding="UTF-8" standalone="no"?>
<!-- Created with Inkscape (http://www.inkscape.org/) -->

<svg
   xmlns:dc="http://purl.org/dc/elements/1.1/"
   xmlns:cc="http://creativecommons.org/ns#"
   xmlns:rdf="http://www.w3.org/1999/02/22-rdf-syntax-ns#"
   xmlns:svg="http://www.w3.org/2000/svg"
   xmlns="http://www.w3.org/2000/svg"
   xmlns:sodipodi="http://sodipodi.sourceforge.net/DTD/sodipodi-0.dtd"
   xmlns:inkscape="http://www.inkscape.org/namespaces/inkscape"
   width="210mm"
   height="297mm"
   viewBox="0 0 210 297"
   version="1.1"
   id="svg8"
   sodipodi:docname="mockup.svg"
   inkscape:version="0.92.0 unknown">
  <defs
     id="defs2" />
  <sodipodi:namedview
     id="base"
     pagecolor="#ffffff"
     bordercolor="#666666"
     borderopacity="1.0"
     inkscape:pageopacity="0.0"
     inkscape:pageshadow="2"
     inkscape:zoom="0.49497475"
     inkscape:cx="398.78046"
     inkscape:cy="590.48"
     inkscape:document-units="mm"
     inkscape:current-layer="layer1"
     showgrid="false"
     inkscape:window-width="1855"
     inkscape:window-height="1056"
     inkscape:window-x="65"
     inkscape:window-y="24"
     inkscape:window-maximized="1" />
  <metadata
     id="metadata5">
    <rdf:RDF>
      <cc:Work
         rdf:about="">
        <dc:format>image/svg+xml</dc:format>
        <dc:type
           rdf:resource="http://purl.org/dc/dcmitype/StillImage" />
      </cc:Work>
    </rdf:RDF>
  </metadata>
  <g
     inkscape:label="Calque 1"
     inkscape:groupmode="layer"
     id="layer1">
    <path
       style="opacity:1;fill:none;fill-rule:nonzero;stroke:#000000;stroke-width:0.38381165;stroke-miterlimit:4;stroke-dasharray:none;stroke-opacity:1"
       d="M 8.1950631,4.1580226 H 201.82556 c 2.6512,0 4.78556,2.1044951 4.78556,4.7185989 V 99.618911 c 0,2.614099 -2.13436,4.718599 -4.78556,4.718599 H 8.1950631 c -2.6511919,0 -4.7855449,-2.1045 -4.7855449,-4.718599 V 8.8766215 c 0,-2.6141038 2.134353,-4.7185989 4.7855449,-4.7185989 z"
       id="rect4487"
       inkscape:connector-curvature="0" />
    <path
       style="opacity:1;fill:none;fill-rule:nonzero;stroke:#000000;stroke-width:0.3885693;stroke-miterlimit:4;stroke-dasharray:none;stroke-opacity:1"
       d="M 8.7182074,107.17311 H 201.81336 c 2.63884,0 4.76324,2.16731 4.76324,4.85945 v 17.56881 c 0,2.69214 -2.1244,4.85945 -4.76324,4.85945 H 8.7182074 c -2.6388407,0 -4.7632504,-2.16731 -4.7632504,-4.85945 v -17.56881 c 0,-2.69214 2.1244097,-4.85945 4.7632504,-4.85945 z"
       id="rect4534"
       inkscape:connector-curvature="0" />
    <path
       style="opacity:1;fill:none;fill-rule:nonzero;stroke:#000000;stroke-width:0.39011398;stroke-miterlimit:4;stroke-dasharray:none;stroke-opacity:1"
       d="M 6.2292213,179.92316 H 88.419149 c 1.123203,0 2.027449,0.6238 2.027449,1.39866 v 42.60561 c 0,0.77486 -0.904246,1.39866 -2.027449,1.39866 H 6.2292213 c -1.1232086,0 -2.0274522,-0.6238 -2.0274522,-1.39866 v -42.60561 c 0,-0.77486 0.9042436,-1.39866 2.0274522,-1.39866 z"
       id="rect4536"
       inkscape:connector-curvature="0" />
    <path
       style="opacity:1;fill:none;fill-rule:nonzero;stroke:#000000;stroke-width:0.37866792;stroke-miterlimit:4;stroke-dasharray:none;stroke-opacity:1"
       d="m 11.19286,7.3192399 h 187.48007 c 2.6016,0 4.69604,2.0875086 4.69604,4.6805111 v 3.960454 c 0,2.593005 -2.09444,4.680512 -4.69604,4.680512 H 11.19286 c -2.6015981,0 -4.6960245,-2.087507 -4.6960245,-4.680512 v -3.960454 c 0,-2.5930025 2.0944264,-4.6805111 4.6960245,-4.6805111 z"
       id="rect4540"
       inkscape:connector-curvature="0" />
    <path
       style="opacity:1;fill:none;fill-rule:nonzero;stroke:#000000;stroke-width:0.39249423;stroke-miterlimit:4;stroke-dasharray:none;stroke-opacity:1"
       d="M 85.380105,55.74298 H 102.9489 c 2.07087,0 3.73804,1.667167 3.73804,3.738041 0,2.070874 -1.66717,3.73804 -3.73804,3.73804 H 85.380105 c -2.070875,0 -3.73804,-1.667166 -3.73804,-3.73804 0,-2.070874 1.667165,-3.738041 3.73804,-3.738041 z"
       id="rect4544"
       inkscape:connector-curvature="0" />
    <path
       style="opacity:1;fill:none;fill-rule:nonzero;stroke:#000000;stroke-width:0.39249423;stroke-miterlimit:4;stroke-dasharray:none;stroke-opacity:1"
       d="m 115.47133,55.74298 h 17.56879 c 2.07087,0 3.73805,1.667167 3.73805,3.738041 0,2.070874 -1.66718,3.73804 -3.73805,3.73804 h -17.56879 c -2.07088,0 -3.73804,-1.667166 -3.73804,-3.73804 0,-2.070874 1.66716,-3.738041 3.73804,-3.738041 z"
       id="rect4544-3"
       inkscape:connector-curvature="0" />
    <path
       style="opacity:1;fill:none;fill-rule:nonzero;stroke:#000000;stroke-width:0.41049355;stroke-miterlimit:4;stroke-dasharray:none;stroke-opacity:1"
       d="m 82.755255,47.284762 h 53.140435 c 0.58573,0 1.05728,0.471545 1.05728,1.057278 v 1.585916 c 0,0.585731 -0.47155,1.057277 -1.05728,1.057277 H 82.755255 c -0.585732,0 -1.057277,-0.471546 -1.057277,-1.057277 V 48.34204 c 0,-0.585733 0.471545,-1.057278 1.057277,-1.057278 z"
       id="rect4569"
       inkscape:connector-curvature="0" />
    <path
       style="opacity:1;fill:none;fill-rule:nonzero;stroke:#000000;stroke-width:0.39249423;stroke-miterlimit:4;stroke-dasharray:none;stroke-opacity:1"
       d="m 194.57457,285.30726 h 7.40095 c 1.46432,0 2.64319,1.17886 2.64319,2.6432 v 0.52863 c 0,1.46433 -1.17887,2.6432 -2.64319,2.6432 h -7.40095 c -1.46432,0 -2.64319,-1.17887 -2.64319,-2.6432 v -0.52863 c 0,-1.46434 1.17887,-2.6432 2.64319,-2.6432 z"
       id="rect4571"
       inkscape:connector-curvature="0" />
    <path
       style="opacity:1;fill:none;fill-rule:nonzero;stroke:#000000;stroke-width:0.3885693;stroke-miterlimit:4;stroke-dasharray:none;stroke-opacity:1"
       d="m 94.735891,180.13813 h 44.316029 c 0.60562,0 1.09319,0.6238 1.09319,1.39867 v 42.6056 c 0,0.77486 -0.48757,1.39866 -1.09319,1.39866 H 94.735891 c -0.605624,0 -1.093183,-0.6238 -1.093183,-1.39866 v -42.6056 c 0,-0.77487 0.487559,-1.39867 1.093183,-1.39867 z"
       id="rect4536-3"
       inkscape:connector-curvature="0" />
    <path
       style="opacity:1;fill:none;fill-rule:nonzero;stroke:#000000;stroke-width:0.45245656;stroke-miterlimit:4;stroke-dasharray:none;stroke-opacity:1"
       d="m 144.78773,180.13812 h 60.0866 c 0.82115,0 1.48223,0.6238 1.48223,1.39867 v 42.6056 c 0,0.77486 -0.66108,1.39866 -1.48223,1.39866 h -60.0866 c -0.82115,0 -1.48221,-0.6238 -1.48221,-1.39866 v -42.6056 c 0,-0.77487 0.66106,-1.39867 1.48221,-1.39867 z"
       id="rect4536-3-6"
       inkscape:connector-curvature="0" />
    <path
       style="opacity:1;fill:none;fill-rule:nonzero;stroke:#000000;stroke-width:0.40143573;stroke-miterlimit:4;stroke-dasharray:none;stroke-opacity:1"
       d="M 2.8632084,1.3079225 H 207.53625 c 0.60024,0 1.08346,0.4832241 1.08346,1.0834622 V 294.83969 c 0,0.60024 -0.48322,1.08347 -1.08346,1.08347 H 2.8632084 c -0.6002381,0 -1.0834622,-0.48323 -1.0834622,-1.08347 V 2.3913847 c 0,-0.6002381 0.4832241,-1.0834622 1.0834622,-1.0834622 z"
       id="rect4608" />
  </g>
</svg>
